<svg version="1.1" id="Layer_1" xmlns="http://www.w3.org/2000/svg" xmlns:xlink="http://www.w3.org/1999/xlink" x="0px" y="0px"
	 width="100%" viewBox="0 0 624 624" enable-background="new 0 0 624 624" xml:space="preserve">
<path fill="currentColor" opacity="1.000000" stroke="none" 
	d="
M295.206512,380.157654 
	C297.332764,378.261139 299.328278,379.550262 301.156433,379.865356 
	C309.955902,381.382202 318.765564,381.627960 327.441620,379.580322 
	C331.400299,378.646057 333.051117,379.960419 334.649384,383.310577 
	C350.776031,417.114227 367.021484,450.861267 383.252747,484.614960 
	C389.889709,498.416901 396.463287,512.251404 403.307922,525.950073 
	C405.194733,529.726379 404.554230,531.469543 400.633636,533.008850 
	C367.053497,546.193176 332.307098,551.163269 296.360718,548.546875 
	C273.109497,546.854553 250.627701,541.930420 228.876434,533.593689 
	C227.479218,533.058167 226.087723,532.492188 224.747284,531.831360 
	C224.183197,531.553284 223.758850,530.991760 222.780930,530.124512 
	C246.834808,480.260162 270.905121,430.361694 295.206512,380.157654 
z"/>
<path fill="currentColor" opacity="1.000000" stroke="none" 
	d="
M158.526001,361.470032 
	C188.601181,354.547516 218.278595,347.754974 247.927811,340.841431 
	C251.095444,340.102814 252.770996,340.882904 254.202820,343.837982 
	C258.245605,352.181793 263.889740,359.406342 271.088715,365.244080 
	C274.094818,367.681793 274.424561,369.707275 272.735901,373.188171 
	C254.936966,409.877533 237.311218,446.650909 219.641464,483.402924 
	C214.376389,494.354004 209.134857,505.316406 203.849670,516.257751 
	C203.216293,517.568970 202.375519,518.779907 201.464066,520.319031 
	C193.796310,517.020935 187.183228,512.536743 180.687836,507.969666 
	C136.277039,476.742920 105.669411,435.352112 89.201416,383.526520 
	C87.750603,378.960754 88.377876,377.240784 93.352409,376.176239 
	C114.992844,371.545105 136.539413,366.475372 158.526001,361.470032 
z"/>
<path fill="currentColor" opacity="1.000000" stroke="none" 
	d="
M548.402527,295.707642 
	C550.340881,314.526245 548.973145,332.747528 546.321899,350.936584 
	C545.780151,354.653442 543.938110,354.461182 541.064514,353.801971 
	C500.501221,344.496582 459.916901,335.282806 419.339233,326.039886 
	C408.302155,323.525787 397.295654,320.868805 386.221802,318.529694 
	C382.540588,317.752136 380.772766,316.312744 380.863007,312.266052 
	C381.074554,302.779724 378.838440,293.735352 374.560944,285.284424 
	C373.138123,282.473389 373.670715,280.938873 376.075104,279.026764 
	C417.804596,245.840622 459.481537,212.588211 501.097565,179.259918 
	C504.047302,176.897659 505.597107,177.123428 507.750000,180.260681 
	C529.564941,212.050278 542.636108,247.104263 547.365479,285.316833 
	C547.774048,288.617889 548.046875,291.935760 548.402527,295.707642 
z"/>
<path fill="currentColor" opacity="1.000000" stroke="none" 
	d="
M201.845795,239.120514 
	C218.394089,252.337112 234.609818,265.401703 250.988312,278.258942 
	C254.163025,280.751129 254.813400,282.752716 252.949478,286.552979 
	C248.953537,294.700104 246.807205,303.452057 247.181137,312.620728 
	C247.324982,316.147400 245.810913,317.624969 242.498398,318.377350 
	C194.439011,329.293610 146.399490,340.297394 98.355194,351.280121 
	C94.947319,352.059174 91.485710,352.658783 88.144806,353.660919 
	C84.058784,354.886627 82.239372,354.014984 81.484947,349.371368 
	C76.385178,317.981232 78.565697,287.011963 86.144150,256.282837 
	C92.830719,229.170135 103.907066,204.044220 119.675827,180.947006 
	C122.428467,176.915070 124.303757,177.082901 127.805260,179.906128 
	C152.314438,199.667557 176.964813,219.253845 201.845795,239.120514 
z"/>
<path fill="currentColor" opacity="1.000000" stroke="none" 
	d="
M356.186157,366.043640 
	C363.768158,359.592590 369.821014,352.295197 373.982788,343.637054 
	C375.679504,340.107300 377.872955,340.389343 380.872009,341.083618 
	C402.276031,346.038605 423.702026,350.898560 445.120697,355.790344 
	C474.167969,362.424408 503.215668,369.056763 532.261597,375.696716 
	C540.650391,377.614410 540.705566,377.644348 538.053284,385.661743 
	C519.054016,443.093414 483.580505,487.235168 431.450989,518.021301 
	C427.548676,520.325867 425.876007,519.685364 423.974243,515.717285 
	C401.083618,467.955872 378.059570,420.258392 355.037292,372.560120 
	C353.881592,370.165710 352.738586,367.960083 356.186157,366.043640 
z"/>
<path fill="currentColor" opacity="1.000000" stroke="none" 
	d="
M143.816101,163.230621 
	C137.327225,158.232437 137.343094,158.247498 142.644363,152.660263 
	C182.288940,110.877121 230.848999,86.889442 287.912292,79.888954 
	C289.891266,79.646179 291.905548,79.704834 293.899811,79.570602 
	C302.331207,79.003082 302.341522,78.995834 302.341431,87.678818 
	C302.340942,138.678162 302.264496,189.677734 302.438934,240.676468 
	C302.456573,245.837479 301.354584,248.387161 295.813293,249.470047 
	C287.381714,251.117798 279.942932,255.512054 273.212555,260.790497 
	C270.447845,262.958801 268.701050,262.995667 265.942474,260.780182 
	C236.194290,236.889069 206.336304,213.134674 176.511169,189.339371 
	C165.700409,180.714264 154.897141,172.079758 143.816101,163.230621 
z"/>
<path fill="currentColor" opacity="1.000000" stroke="none" 
	d="
M433.734314,111.175278 
	C453.749115,122.913773 471.016296,137.449036 486.745789,153.940765 
	C489.889404,157.236725 489.529236,158.994400 486.072601,161.744736 
	C444.632050,194.717834 403.293274,227.818924 361.971252,260.940674 
	C359.726166,262.740234 357.984253,263.416931 355.471191,261.302704 
	C347.948425,254.973816 339.207825,250.902985 329.707794,248.598999 
	C326.663391,247.860641 325.678833,246.446777 325.681335,243.454025 
	C325.725739,190.133148 325.717102,136.812164 325.647339,83.491325 
	C325.642822,80.046577 326.731842,78.803139 330.340637,79.065010 
	C367.181427,81.738441 401.532806,92.362282 433.734314,111.175278 
z"/>
</svg>